<svg width="211" height="32" viewBox="0 0 211 32" fill="none" xmlns="http://www.w3.org/2000/svg">
<path d="M46.002 20.71L46.841 18.694H50.262L51.056 20.71H53.408L48.76 10H48.648L44 20.71H46.002ZM49.589 16.986H47.553L48.599 14.474L49.589 16.986ZM62.78 20.71V18.75H57.936V10.406H55.906V20.71H62.78ZM67.91 20.71V17.448H69.366C70.038 17.448 70.605 17.343 71.067 17.133C71.529 16.923 71.8977 16.6453 72.173 16.3C72.4483 15.9547 72.649 15.5697 72.775 15.145C72.901 14.7203 72.964 14.298 72.964 13.878C72.964 13.1687 72.81 12.555 72.502 12.037C72.194 11.519 71.746 11.1177 71.158 10.833C70.57 10.5483 69.8513 10.406 69.002 10.406H65.88V20.71H67.91ZM69.352 15.474H67.91V12.366H69.366C69.7207 12.366 70.003 12.4267 70.213 12.548C70.423 12.6693 70.5793 12.8187 70.682 12.996C70.7847 13.1733 70.8523 13.3483 70.885 13.521C70.9177 13.6937 70.934 13.8313 70.934 13.934C70.934 14.0647 70.9083 14.2187 70.857 14.396C70.8057 14.5733 70.7217 14.7437 70.605 14.907C70.4883 15.0703 70.3273 15.2057 70.122 15.313C69.9167 15.4203 69.66 15.474 69.352 15.474ZM77.814 20.71V16.524H82.42V20.71H84.45V10.406H82.42V14.564H77.814V10.406H75.784V20.71H77.814ZM88.95 20.71L89.789 18.694H93.21L94.004 20.71H96.356L91.708 10H91.596L86.948 20.71H88.95ZM92.537 16.986H90.501L91.547 14.474L92.537 16.986Z" fill="#E8E9EA"/>
<path d="M106.434 20.71V16.664H110.256V14.704H106.434V12.366H110.844V10.406H104.404V20.71H106.434ZM115.834 20.71V10.406H113.804V20.71H115.834ZM128.776 21.13V10.406H126.732L126.773 16.616L119.578 10H119.494V20.71H121.552L121.511 14.619L128.72 21.13H128.776ZM133.276 20.71L134.115 18.694H137.536L138.33 20.71H140.682L136.034 10H135.922L131.274 20.71H133.276ZM136.863 16.986H134.827L135.873 14.474L136.863 16.986ZM152.462 21.13V10.406H150.418L150.459 16.615L143.264 10H143.18V20.71H145.238L145.197 14.619L152.406 21.13H152.462ZM160.658 20.822C161.19 20.8313 161.675 20.7753 162.114 20.654C162.552 20.5327 162.923 20.3927 163.227 20.234C163.53 20.0753 163.738 19.9493 163.85 19.856L163.01 18.036C162.804 18.232 162.506 18.4187 162.114 18.596C161.722 18.7733 161.25 18.862 160.7 18.862C160.224 18.862 159.797 18.7827 159.419 18.624C159.041 18.4653 158.716 18.239 158.446 17.945C158.175 17.651 157.967 17.2987 157.823 16.888C157.678 16.4773 157.606 16.0247 157.606 15.53C157.606 15.0633 157.685 14.6317 157.844 14.235C158.002 13.8383 158.219 13.4907 158.495 13.192C158.77 12.8933 159.087 12.6623 159.447 12.499C159.806 12.3357 160.182 12.254 160.574 12.254C161.078 12.254 161.523 12.3497 161.911 12.541C162.298 12.7323 162.608 12.9167 162.842 13.094L163.64 11.176C163.304 10.9613 162.87 10.7607 162.338 10.574C161.806 10.3873 161.194 10.294 160.504 10.294C159.757 10.294 159.076 10.4247 158.46 10.686C157.844 10.9473 157.314 11.316 156.871 11.792C156.427 12.268 156.087 12.8327 155.849 13.486C155.611 14.1393 155.492 14.858 155.492 15.642C155.492 16.342 155.608 17 155.842 17.616C156.075 18.232 156.413 18.778 156.857 19.254C157.3 19.73 157.841 20.1057 158.481 20.381C159.12 20.6563 159.846 20.8033 160.658 20.822ZM174.104 20.71V18.75H168.91V16.524H173.334V14.564H168.91V12.366H173.908V10.406H166.88V20.71H174.104ZM189.628 20.71V18.75H184.784V10.406H182.754V20.71H189.628ZM193.568 20.71L194.407 18.694H197.828L198.622 20.71H200.974L196.326 10H196.214L191.566 20.71H193.568ZM197.155 16.986H195.119L196.165 14.474L197.155 16.986ZM206.902 20.71C207.359 20.71 207.802 20.6563 208.232 20.549C208.661 20.4417 209.046 20.269 209.387 20.031C209.727 19.793 209.998 19.4803 210.199 19.093C210.399 18.7057 210.5 18.232 210.5 17.672C210.5 17.0653 210.308 16.545 209.926 16.111C209.639 15.7855 209.274 15.5164 208.832 15.3038L208.781 15.281L208.823 15.2555C209.05 15.1102 209.248 14.9381 209.418 14.7392L209.541 14.585C209.853 14.1603 210.01 13.6307 210.01 12.996C210.01 12.1373 209.692 11.491 209.058 11.057C208.423 10.623 207.569 10.406 206.496 10.406H203.472V20.71H206.902ZM206.734 14.62H205.502V12.366H206.594C206.995 12.366 207.315 12.4547 207.553 12.632C207.791 12.8093 207.91 13.0753 207.91 13.43C207.91 13.738 207.814 14.0133 207.623 14.256C207.431 14.4987 207.135 14.62 206.734 14.62ZM206.804 18.82H205.502V16.58H206.664C206.953 16.58 207.231 16.6103 207.497 16.671C207.763 16.7317 207.98 16.839 208.148 16.993C208.316 17.147 208.4 17.3733 208.4 17.672C208.4 17.9333 208.33 18.1503 208.19 18.323C208.05 18.4957 207.858 18.6217 207.616 18.701C207.373 18.7803 207.102 18.82 206.804 18.82Z" fill="#929497"/>
<path d="M16 32C24.8366 32 32 24.8366 32 16C32 7.16344 24.8366 0 16 0C7.16344 0 0 7.16344 0 16C0 24.8366 7.16344 32 16 32Z" fill="url(#paint0_linear)"/>
<path d="M16 6.32544V6.33432L16.003 12.6656L17.149 15.5292L16.0059 14.5757V17.6318C16.0118 17.6406 16.0178 17.6466 16.0237 17.6554C17.8656 19.9593 20.1636 21.8842 22.7844 23.2879L16 6.32544Z" fill="url(#paint1_linear)"/>
<path d="M16.0002 6.32544V6.33432L15.9972 12.6656L14.8512 15.5292L15.9943 14.5757V17.6318C15.9884 17.6406 15.9824 17.6466 15.9765 17.6554C14.1346 19.9593 11.8366 21.8842 9.21582 23.2879L16.0002 6.32544Z" fill="url(#paint2_linear)"/>
<path d="M15.9998 21.5139C16.8503 21.5139 17.5397 20.8244 17.5397 19.974C17.5397 19.1235 16.8503 18.4341 15.9998 18.4341C15.1494 18.4341 14.46 19.1235 14.46 19.974C14.46 20.8244 15.1494 21.5139 15.9998 21.5139Z" fill="#F5CC02"/>
<defs>
<linearGradient id="paint0_linear" x1="4.68626" y1="27.3161" x2="27.3154" y2="4.6869" gradientUnits="userSpaceOnUse">
<stop stop-color="#102054"/>
<stop offset="1" stop-color="#1A45B8"/>
</linearGradient>
<linearGradient id="paint1_linear" x1="19.393" y1="6.27506" x2="19.393" y2="23.4688" gradientUnits="userSpaceOnUse">
<stop stop-color="white"/>
<stop offset="1" stop-color="white" stop-opacity="0.6"/>
</linearGradient>
<linearGradient id="paint2_linear" x1="12.6097" y1="23.349" x2="12.6097" y2="6.47538" gradientUnits="userSpaceOnUse">
<stop stop-color="white"/>
<stop offset="1" stop-color="white" stop-opacity="0.6"/>
</linearGradient>
</defs>
</svg>
